<?xml version="1.0" encoding="UTF-8"?>
<svg xmlns="http://www.w3.org/2000/svg" xmlns:xlink="http://www.w3.org/1999/xlink" viewBox="0 0 480 480" width="480px" height="480px">
<g id="surface12347962">
<path style=" stroke:none;fill-rule:nonzero;fill:rgb(90.196079%,49.411765%,13.333334%);fill-opacity:1;" d="M 434.625 22.3125 C 432.824219 20.324219 430.238281 19.199219 427.539062 19.199219 L 52.460938 19.199219 C 49.761719 19.199219 47.175781 20.324219 45.375 22.3125 C 43.539062 24.300781 42.636719 26.960938 42.898438 29.664062 L 76.6875 408.148438 C 77.023438 412.125 79.800781 415.425781 83.625 416.550781 L 237.335938 460.425781 C 238.164062 460.6875 239.0625 460.800781 239.960938 460.800781 C 240.863281 460.800781 241.726562 460.6875 242.585938 460.425781 L 396.414062 416.550781 C 400.238281 415.425781 402.976562 412.125 403.351562 408.148438 L 437.101562 29.664062 C 437.363281 26.960938 436.460938 24.300781 434.625 22.3125 Z M 353.738281 152.8125 L 173.136719 152.8125 L 177.449219 201.675781 L 349.386719 201.675781 L 336.488281 346.085938 L 239.925781 375.261719 L 238.988281 374.960938 L 143.550781 346.050781 L 138.335938 287.210938 L 185.101562 287.210938 L 187.125 310.050781 L 240.488281 321.226562 L 292.875 310.050781 L 298.460938 248.25 L 134.851562 248.25 L 122.136719 106.125 L 357.898438 106.125 Z M 353.738281 152.8125 "/>
</g>
</svg>
