<?xml version="1.0" encoding="UTF-8"?>
<svg xmlns="http://www.w3.org/2000/svg" xmlns:xlink="http://www.w3.org/1999/xlink" viewBox="0 0 480 480" width="480px" height="480px">
<g id="surface4078225">
<path style=" stroke:none;fill-rule:nonzero;fill:rgb(20.392157%,59.607846%,85.882354%);fill-opacity:1;" d="M 406.847656 53.328125 C 403.808594 49.9375 399.472656 48 394.929688 48 L 85.070312 48 C 80.527344 48 76.191406 49.9375 73.152344 53.328125 C 70.113281 56.71875 68.671875 61.246094 69.167969 65.761719 L 104.398438 382.929688 C 105.105469 389.375 109.664062 394.769531 115.902344 396.542969 L 235.585938 430.734375 C 237.023438 431.152344 238.511719 431.359375 239.984375 431.359375 C 241.457031 431.359375 242.945312 431.152344 244.382812 430.734375 L 364.0625 396.542969 C 370.304688 394.769531 374.847656 389.375 375.566406 382.929688 L 410.816406 65.761719 C 411.328125 61.246094 409.886719 56.71875 406.847656 53.328125 Z M 328.257812 209.183594 L 321.121094 325.742188 L 240.511719 352.097656 L 159.902344 325.742188 L 156.847656 270 L 197.648438 270 L 198.671875 295.34375 L 240.511719 309.535156 L 282.351562 295.34375 L 285.40625 249.742188 L 195.617188 249.742188 L 193.585938 209.199219 L 287.457031 209.199219 L 290.511719 168.65625 L 149.695312 168.65625 L 146.640625 128.097656 L 333.359375 128.097656 Z M 328.257812 209.183594 "/>
</g>
</svg>
