<svg width="480" height="480" viewBox="0 0 480 480" fill="none" xmlns="http://www.w3.org/2000/svg">
<g clip-path="url(#clip0_2_2)">
<path d="M478.441 78.9674L257.189 474.842C252.62 483.014 240.885 483.062 236.247 474.929L10.6087 79.0045C5.558 70.1401 13.1307 59.4042 23.1682 61.1983L244.66 100.813C246.072 101.066 247.519 101.064 248.931 100.806L465.789 61.2556C475.793 59.4312 483.404 70.0845 478.441 78.9657V78.9674Z" fill="url(#paint0_linear_2_2)"/>
<path d="M349.683 9.11632L185.931 41.2209C184.622 41.4771 183.436 42.1614 182.558 43.166C181.681 44.1706 181.162 45.4386 181.083 46.7705L171.011 216.994C170.775 221.004 174.454 224.116 178.364 223.213L223.956 212.686C228.222 211.701 232.076 215.461 231.199 219.752L217.655 286.12C216.742 290.584 220.933 294.405 225.292 293.081L253.452 284.519C257.818 283.193 262.012 287.024 261.09 291.494L239.564 395.741C238.217 402.261 246.885 405.816 250.5 400.226L252.915 396.493L386.349 130.046C388.584 125.585 384.733 120.498 379.833 121.444L332.906 130.506C328.495 131.357 324.743 127.248 325.987 122.93L356.617 16.6893C357.863 12.3628 354.098 8.25036 349.683 9.11632V9.11632Z" fill="url(#paint1_linear_2_2)"/>
</g>
<defs>
<linearGradient id="paint0_linear_2_2" x1="5.09897" y1="47.0486" x2="280.666" y2="421.065" gradientUnits="userSpaceOnUse">
<stop stop-color="#41D1FF"/>
<stop offset="1" stop-color="#BD34FE"/>
</linearGradient>
<linearGradient id="paint1_linear_2_2" x1="231.438" y1="17.8315" x2="281.31" y2="359.751" gradientUnits="userSpaceOnUse">
<stop stop-color="#FFEA83"/>
<stop offset="0.0833" stop-color="#FFDD35"/>
<stop offset="1" stop-color="#FFA800"/>
</linearGradient>
<clipPath id="clip0_2_2">
<rect width="480" height="480" fill="white"/>
</clipPath>
</defs>
</svg>
